<?xml version="1.0" standalone="no"?>
<!DOCTYPE svg PUBLIC "-//W3C//DTD SVG 20010904//EN"
 "http://www.w3.org/TR/2001/REC-SVG-20010904/DTD/svg10.dtd">
<svg version="1.0" xmlns="http://www.w3.org/2000/svg"
 width="642.000000pt" height="582.000000pt" viewBox="0 0 642.000000 582.000000"
 preserveAspectRatio="xMidYMid meet">

<g transform="translate(0.000000,582.000000) scale(0.100000,-0.100000)"
fill="#000000" stroke="none">
<path d="M2880 4525 c-104 -46 -375 -165 -482 -211 -38 -16 -68 -31 -68 -34 0
-3 39 -32 87 -65 48 -33 112 -79 144 -101 l56 -42 -66 -69 c-73 -76 -118 -154
-150 -258 -64 -206 -18 -402 135 -575 90 -103 90 -102 52 -141 -32 -31 -86
-69 -100 -69 -4 0 -16 19 -28 43 -46 94 -80 150 -115 188 l-36 40 7 78 c6 74
5 79 -17 95 -15 10 -44 16 -77 16 -46 0 -58 -4 -83 -29 -27 -28 -29 -34 -29
-114 l0 -84 -39 -12 c-22 -6 -52 -26 -66 -43 -24 -28 -26 -37 -20 -73 4 -22 7
-61 6 -86 -1 -32 5 -53 19 -71 12 -16 20 -41 20 -66 0 -55 28 -87 91 -102 28
-7 71 -10 97 -7 25 3 57 1 70 -4 36 -14 102 8 137 46 17 17 48 38 68 44 20 7
64 33 98 58 33 25 61 44 63 42 2 -2 6 -16 10 -31 4 -19 2 -30 -10 -36 -13 -7
-15 -27 -12 -126 3 -115 4 -118 31 -138 15 -11 27 -28 27 -37 0 -10 9 -26 20
-36 31 -28 27 -79 -10 -105 -16 -12 -30 -30 -30 -41 0 -16 -4 -18 -27 -12
-109 31 -228 -40 -240 -141 -3 -22 -12 -56 -20 -75 -14 -32 -14 -35 2 -47 35
-25 131 -38 290 -39 129 0 167 3 198 17 20 9 37 23 38 30 1 7 2 73 4 146 l2
133 -29 22 c-21 16 -28 28 -26 47 l3 25 115 0 115 0 3 -31 c2 -24 -2 -33 -23
-42 l-26 -12 3 -147 3 -148 40 -20 c36 -18 58 -20 210 -18 235 2 307 24 278
85 -6 13 -15 41 -18 63 -4 21 -13 52 -21 67 -33 63 -138 109 -207 90 -39 -11
-47 -8 -47 20 0 10 -11 24 -25 30 -21 9 -25 18 -25 52 0 29 6 47 20 59 11 9
20 24 20 33 0 9 11 25 25 36 24 19 25 23 25 139 0 94 -3 121 -14 125 -11 4
-12 12 -4 35 5 16 12 29 15 29 3 0 25 -18 50 -39 24 -22 66 -48 91 -57 26 -10
66 -35 89 -56 40 -36 65 -44 118 -40 11 1 58 3 105 5 90 3 145 23 154 54 2 10
8 38 11 63 4 25 14 52 22 61 8 10 14 36 13 65 0 27 3 69 6 94 5 40 3 49 -22
73 -15 15 -44 32 -65 39 l-39 11 6 67 c5 55 3 73 -14 107 -17 33 -29 42 -65
52 -37 11 -50 10 -82 -4 -22 -8 -43 -21 -47 -28 -5 -7 -6 -44 -2 -84 l6 -72
-45 -55 c-25 -31 -51 -72 -57 -91 -6 -19 -15 -35 -20 -35 -4 0 -18 -20 -30
-45 -20 -41 -23 -43 -48 -34 -30 11 -102 77 -102 94 0 6 34 51 76 100 80 95
100 127 136 222 20 50 23 76 22 188 0 108 -4 140 -22 189 -35 95 -88 180 -152
245 -33 34 -60 65 -60 69 0 4 16 16 36 27 l36 19 29 -32 c16 -18 29 -43 29
-56 0 -13 9 -35 21 -50 31 -39 83 -36 154 10 52 33 74 58 63 70 -3 3 -17 -1
-31 -7 -21 -9 -35 -8 -74 5 -26 10 -59 20 -73 23 -28 6 -57 29 -71 55 -7 14 6
27 71 73 44 31 80 60 80 64 0 4 -61 34 -136 67 -132 57 -137 60 -160 105 -27
54 -48 62 -114 47 -45 -10 -53 -9 -144 31 -53 22 -100 41 -104 40 -4 0 -50
-20 -102 -44z m304 -138 l119 -44 43 -86 44 -86 -40 -31 c-41 -33 -42 -33 -99
7 -2 1 4 20 13 43 9 22 16 43 16 46 0 13 -91 43 -163 55 -137 21 -343 -1 -402
-45 -21 -15 -20 -17 9 -86 4 -10 -3 -21 -24 -33 l-30 -18 -100 73 c-54 40
-100 75 -100 78 0 3 116 48 258 101 294 110 238 107 456 26z m276 -103 c44
-18 46 -29 13 -51 -20 -14 -23 -12 -43 26 -11 23 -18 41 -15 41 2 0 23 -7 45
-16z m-364 -185 c96 -17 216 -81 288 -152 103 -104 153 -211 163 -352 10 -145
-30 -248 -152 -394 -84 -99 -101 -132 -120 -233 -16 -84 -32 -104 -96 -117
-67 -15 -342 -14 -390 1 -55 16 -69 37 -86 124 -17 93 -36 131 -99 204 -85 99
-120 154 -142 220 -71 213 3 451 183 587 136 104 289 141 451 112z m-856 -739
c16 -8 18 -18 13 -64 -8 -76 -1 -95 61 -164 61 -69 80 -115 73 -178 -4 -35 -2
-42 8 -34 7 6 16 22 19 36 9 35 26 20 26 -22 0 -63 -21 -123 -52 -149 -31 -26
-84 -35 -75 -12 22 53 23 50 -11 33 -20 -10 -57 -16 -105 -16 -61 0 -79 4
-101 21 -22 18 -27 28 -25 59 2 26 -3 43 -15 56 -14 14 -17 27 -13 59 4 24 2
46 -4 52 -19 19 0 72 31 88 66 34 180 8 180 -40 0 -24 -2 -25 -75 -25 -59 0
-75 -3 -75 -14 0 -23 19 -29 84 -27 68 2 90 -7 84 -35 -3 -16 -14 -19 -86 -22
-77 -3 -82 -4 -72 -22 9 -17 18 -18 78 -13 55 4 70 2 81 -11 23 -27 6 -44 -53
-51 -72 -9 -63 -30 10 -22 88 9 93 15 90 101 -1 41 -8 81 -15 90 -9 10 -9 20
-2 34 16 30 -19 78 -68 93 -59 18 -74 40 -79 113 -4 57 -2 65 19 80 27 19 43
20 69 6z m1575 -4 c15 -11 19 -25 18 -67 -2 -81 -15 -106 -63 -120 -22 -7 -52
-23 -67 -36 -21 -20 -24 -30 -20 -58 3 -20 1 -37 -5 -41 -6 -4 -8 -24 -4 -50
3 -24 1 -46 -4 -49 -6 -3 -10 -19 -10 -35 0 -37 24 -50 100 -57 79 -7 87 12 9
21 -66 8 -87 28 -53 53 14 11 35 13 80 9 58 -5 84 3 84 26 0 4 -31 8 -69 8
-82 0 -101 6 -101 30 0 25 29 32 103 28 58 -3 62 -1 65 19 3 21 -1 22 -70 25
-66 3 -73 5 -76 24 -4 29 50 54 117 54 42 0 57 -5 78 -26 20 -20 24 -31 19
-57 -7 -34 -7 -40 -4 -87 1 -16 -7 -38 -16 -49 -10 -11 -15 -25 -11 -31 13
-22 -6 -70 -35 -85 -39 -20 -169 -20 -196 0 -26 20 -38 19 -29 -2 4 -10 9 -24
12 -30 13 -33 -79 3 -97 37 -17 32 -30 115 -21 145 l7 29 13 -32 c21 -51 33
-50 26 1 -9 57 15 113 78 183 59 65 70 95 62 162 -6 48 -5 53 17 61 32 13 41
13 63 -3z m-1175 -356 c0 -30 -75 -100 -106 -100 -39 0 -27 31 31 78 56 46 75
51 75 22z m781 -26 c61 -47 69 -66 31 -72 -29 -4 -102 63 -102 94 0 13 3 24 6
24 3 0 32 -21 65 -46z m-153 -225 c-94 -58 -568 -41 -568 21 0 13 8 13 115 -5
50 -8 133 -15 185 -15 89 0 255 22 269 36 3 3 8 -2 9 -11 2 -10 -2 -21 -10
-26z m12 -88 c0 -26 -5 -30 -62 -47 -93 -28 -390 -27 -463 2 -36 14 -51 26
-53 42 -4 26 -7 26 116 6 143 -23 389 -10 460 25 1 0 2 -12 2 -28z m-452 -180
c9 -5 12 -24 10 -52 -3 -39 -6 -44 -28 -44 -23 0 -25 4 -28 53 -3 45 0 52 15
52 10 0 24 -4 31 -9z m379 -26 c4 -54 -5 -75 -32 -75 -23 0 -25 4 -25 48 0 55
5 64 34 60 14 -2 21 -12 23 -33z m-376 -115 l49 0 0 -84 0 -85 -57 -12 c-66
-15 -255 -18 -325 -6 -44 8 -48 11 -48 36 0 44 40 93 90 113 68 26 119 23 184
-12 42 -22 54 -25 47 -12 -5 9 -19 25 -30 34 -31 26 -27 42 10 34 17 -3 53 -6
80 -6z m439 2 c0 -4 -16 -23 -35 -41 -35 -33 -42 -59 -7 -28 70 64 201 60 269
-8 41 -41 47 -99 11 -109 -56 -14 -210 -18 -289 -6 -120 17 -119 16 -119 110
l0 79 68 4 c37 2 75 4 85 5 9 1 17 -2 17 -6z m-390 -206 c0 -20 -121 -46 -215
-46 -107 0 -215 19 -215 38 0 11 7 13 28 8 67 -15 229 -17 297 -3 92 19 105
20 105 3z m319 -2 c80 -15 129 -15 301 -1 14 1 27 -2 29 -8 8 -18 -129 -36
-239 -32 -107 5 -180 22 -188 45 -5 15 -6 15 97 -4z"/>
<path d="M2773 3882 c-24 -10 -50 -25 -58 -33 -14 -14 -14 -17 -1 -28 12 -10
29 -6 90 24 42 20 76 41 76 46 0 15 -61 9 -107 -9z"/>
<path d="M3106 3891 c-7 -11 143 -83 161 -77 31 12 9 40 -51 65 -50 22 -101
27 -110 12z"/>
<path d="M2772 3757 c-29 -31 -28 -39 4 -22 31 16 68 9 39 -7 -15 -9 -15 -11
4 -25 30 -20 26 -42 -9 -54 -30 -11 -34 -20 -22 -51 11 -26 58 -59 77 -52 20
8 55 76 55 108 0 37 -30 105 -51 116 -31 17 -74 11 -97 -13z"/>
<path d="M3101 3756 c-44 -47 -44 -145 -1 -192 30 -31 37 -30 71 6 33 34 37
66 10 75 -11 3 -25 13 -32 22 -11 13 -10 18 11 35 18 15 21 21 11 27 -10 6
-10 10 -2 16 7 4 23 -1 36 -9 31 -20 33 -4 3 24 -30 28 -79 26 -107 -4z"/>
<path d="M2725 3529 c12 -18 -4 -57 -25 -64 -30 -10 -24 -25 10 -25 19 0 30
-5 30 -14 0 -8 11 -28 25 -44 14 -17 25 -39 25 -49 0 -25 56 -82 97 -99 43
-18 171 -18 215 1 39 16 98 77 98 101 0 9 11 29 25 46 14 16 25 36 25 44 0 8
10 14 23 14 34 0 40 11 14 25 -16 8 -22 20 -22 43 0 18 -3 32 -7 32 -12 0 -38
-31 -38 -45 0 -7 -21 -22 -47 -32 -107 -40 -413 -15 -413 35 0 19 -18 42 -33
42 -4 0 -5 -5 -2 -11z m142 -114 c73 -19 194 -19 257 0 83 25 99 15 49 -31
-15 -14 -28 -33 -29 -42 -4 -25 -63 -71 -102 -78 -59 -11 -121 1 -160 33 -20
17 -37 37 -37 46 0 8 -13 25 -28 37 -26 21 -37 50 -17 50 5 0 35 -7 67 -15z"/>
<path d="M1565 1690 c-61 -25 -91 -109 -60 -169 13 -26 35 -41 101 -72 72 -33
84 -42 84 -64 0 -46 -60 -58 -125 -25 l-39 20 -25 -24 c-31 -31 -23 -52 31
-76 58 -26 143 -26 186 0 39 24 72 75 72 113 0 58 -26 87 -116 128 -87 40
-105 58 -84 84 16 20 89 19 117 0 20 -14 23 -13 43 12 26 33 23 44 -21 65 -36
19 -128 23 -164 8z"/>
<path d="M1827 1693 c-4 -3 -7 -21 -7 -40 l0 -33 60 0 60 0 0 -175 0 -175 45
0 c40 0 45 3 45 23 0 12 2 90 3 172 l2 150 58 3 57 3 0 39 0 40 -158 0 c-87 0
-162 -3 -165 -7z"/>
<path d="M2224 1685 c-4 -9 -5 -80 -2 -158 3 -110 8 -151 22 -180 27 -55 69
-81 141 -85 78 -4 122 18 153 78 20 40 22 58 22 203 l0 158 -42 -3 -43 -3 -5
-158 c-5 -152 -6 -160 -29 -178 -13 -10 -33 -19 -46 -19 -13 0 -33 9 -46 19
-23 18 -24 26 -29 178 l-5 158 -43 3 c-31 2 -44 -1 -48 -13z"/>
<path d="M2678 1695 c-5 -5 -8 -102 -8 -217 l0 -208 93 0 c106 0 157 18 200
69 32 39 41 81 35 176 -6 85 -32 130 -92 159 -38 18 -216 34 -228 21z m185
-95 c33 -26 51 -81 44 -137 -6 -56 -33 -94 -80 -112 -64 -24 -67 -18 -67 127
0 71 3 132 7 135 14 14 71 6 96 -13z"/>
<path d="M3097 1694 c-4 -4 -7 -101 -7 -216 l0 -209 48 3 47 3 0 210 0 210
-40 3 c-23 2 -44 0 -48 -4z"/>
<path d="M3368 1680 c-50 -27 -88 -94 -95 -167 -13 -145 69 -252 193 -253 119
0 194 86 194 224 -1 106 -40 178 -113 205 -46 18 -137 13 -179 -9z m166 -91
c23 -27 26 -40 26 -102 0 -91 -22 -133 -75 -143 -44 -8 -81 14 -101 61 -28 68
-10 179 33 204 10 6 34 11 55 11 28 0 42 -7 62 -31z"/>
<path d="M3750 1544 c0 -188 13 -230 83 -265 51 -27 143 -23 185 7 55 41 66
83 67 254 l0 155 -41 3 -42 3 -4 -153 c-3 -84 -8 -160 -12 -169 -8 -18 -48
-39 -75 -39 -10 0 -29 9 -42 19 -23 18 -24 26 -29 178 l-5 158 -42 3 -43 3 0
-157z"/>
<path d="M4245 1684 c-16 -8 -38 -26 -48 -40 -21 -28 -25 -91 -8 -123 13 -24
67 -60 121 -81 68 -26 91 -68 51 -90 -29 -15 -61 -12 -108 9 l-41 19 -28 -29
c-32 -34 -31 -35 41 -69 51 -25 129 -25 174 -2 50 25 74 63 74 117 0 59 -25
86 -121 130 -39 19 -75 41 -78 50 -17 42 69 63 120 30 23 -15 25 -15 45 14 12
16 21 32 21 36 0 3 -19 15 -42 25 -52 23 -132 25 -173 4z"/>
</g>
</svg>
